<svg width="371" height="213" viewBox="0 0 371 213" fill="none" xmlns="http://www.w3.org/2000/svg">
<path d="M152.023 88.7962L155.55 92.323L160.253 87.6206L156.726 84.0938L152.023 88.7962Z" fill="white"/>
<path d="M168.796 35.6607C168.796 34.7445 168.052 34 167.135 34C166.219 34 165.475 34.7444 165.475 35.6607V54.6056C166.751 56.4987 167.866 58.5131 168.799 60.6219L168.796 35.6607Z" fill="white"/>
<path d="M168.795 60.6209V77.2107C168.795 77.652 168.62 78.073 168.31 78.3863L162.018 84.6788L163.78 86.4406C164.43 87.0907 164.43 88.1417 163.78 88.7918L156.722 95.8456C156.072 96.4957 155.021 96.4957 154.371 95.8456L152.609 94.0838L151.434 95.2594C150.784 95.9096 149.733 95.9096 149.082 95.2594C148.432 94.6093 148.432 93.5583 149.082 92.9082L150.258 91.7325L148.496 89.9708C147.846 89.3206 147.846 88.2696 148.496 87.6195L155.547 80.5691C156.197 79.919 157.248 79.919 157.898 80.5691L159.66 82.3309L165.467 76.5235L165.47 54.6043C158.447 44.1855 146.539 37.3203 133.058 37.3203C111.519 37.3203 94 54.8432 94 76.3786C94 97.9175 111.519 115.44 133.058 115.44C154.597 115.44 172.117 97.9175 172.117 76.3821C172.117 70.7768 170.931 65.444 168.795 60.6209ZM133.059 91.3385C124.809 91.3385 118.099 84.6284 118.099 76.3785C118.099 68.129 124.809 61.4185 133.059 61.4185C141.309 61.4185 148.019 68.1286 148.019 76.3785C148.019 84.6281 141.309 91.3385 133.059 91.3385Z" fill="white"/>
<path d="M133.059 64.7441C126.645 64.7441 121.424 69.962 121.424 76.3789C121.424 82.7926 126.642 88.0137 133.059 88.0137C139.472 88.0137 144.693 82.7958 144.693 76.3789C144.693 69.9652 139.472 64.7441 133.059 64.7441ZM133.059 82.2912C129.801 82.2912 127.15 79.6402 127.15 76.3827C127.15 73.1254 129.801 70.4743 133.059 70.4743C136.316 70.4743 138.967 73.1253 138.967 76.3827C138.967 79.6401 136.316 82.2912 133.059 82.2912Z" fill="white"/>
<path d="M9.085 33.58H28.29L67.735 94.07H67.965V33.58H82.455V115H64.055L23.805 52.555H23.575V115H9.085V33.58Z" fill="white"/>
<path d="M192.085 33.58H220.375C224.285 33.58 228.042 33.9633 231.645 34.73C235.325 35.42 238.583 36.6467 241.42 38.41C244.257 40.1733 246.518 42.55 248.205 45.54C249.892 48.53 250.735 52.325 250.735 56.925C250.735 62.8283 249.087 67.7733 245.79 71.76C242.57 75.7467 237.932 78.1617 231.875 79.005L253.495 115H236.015L217.155 80.5H206.575V115H192.085V33.58ZM217.845 68.08C219.915 68.08 221.985 68.0033 224.055 67.85C226.125 67.62 228.003 67.16 229.69 66.47C231.453 65.7033 232.872 64.5917 233.945 63.135C235.018 61.6017 235.555 59.4933 235.555 56.81C235.555 54.4333 235.057 52.5167 234.06 51.06C233.063 49.6033 231.76 48.53 230.15 47.84C228.54 47.0733 226.738 46.575 224.745 46.345C222.828 46.115 220.95 46 219.11 46H206.575V68.08H217.845ZM264.177 33.58H278.667V115H264.177V33.58ZM361.733 85.1C361.733 90.0067 360.89 94.4533 359.203 98.44C357.517 102.35 355.217 105.685 352.303 108.445C349.39 111.205 345.94 113.352 341.953 114.885C337.967 116.342 333.635 117.07 328.958 117.07C324.282 117.07 319.95 116.342 315.963 114.885C311.977 113.352 308.488 111.205 305.498 108.445C302.585 105.685 300.285 102.35 298.598 98.44C296.988 94.4533 296.183 90.0067 296.183 85.1V33.58H310.673V84.64C310.673 86.6333 310.98 88.7417 311.593 90.965C312.207 93.1117 313.203 95.105 314.583 96.945C316.04 98.785 317.918 100.318 320.218 101.545C322.595 102.695 325.508 103.27 328.958 103.27C332.408 103.27 335.283 102.695 337.583 101.545C339.96 100.318 341.838 98.785 343.218 96.945C344.675 95.105 345.71 93.1117 346.323 90.965C346.937 88.7417 347.243 86.6333 347.243 84.64V33.58H361.733V85.1Z" fill="white"/>
<path d="M9.42231 128.549H24.4599L39.2625 167.396L54.2218 128.549H69.1028V184H59.7043V137.947H59.5476L42.7087 184H35.8164L18.9775 137.947H18.8208V184H9.42231V128.549ZM126.103 163.637C126.103 166.978 125.529 170.007 124.38 172.722C123.231 175.385 121.665 177.656 119.681 179.536C117.697 181.415 115.347 182.877 112.632 183.922C109.917 184.914 106.967 185.41 103.782 185.41C100.597 185.41 97.6466 184.914 94.9315 183.922C92.2164 182.877 89.8407 181.415 87.8043 179.536C85.8202 177.656 84.2538 175.385 83.1051 172.722C82.0086 170.007 81.4603 166.978 81.4603 163.637V128.549H91.3288V163.323C91.3288 164.681 91.5376 166.117 91.9553 167.631C92.373 169.093 93.0518 170.45 93.9917 171.704C94.9837 172.957 96.263 174.001 97.8294 174.836C99.448 175.62 101.432 176.011 103.782 176.011C106.131 176.011 108.089 175.62 109.656 174.836C111.274 174.001 112.554 172.957 113.494 171.704C114.486 170.45 115.191 169.093 115.608 167.631C116.026 166.117 116.235 164.681 116.235 163.323V128.549H126.103V163.637ZM134.772 175.071L164.377 137.477H135.242V128.549H176.673V137.477L146.833 175.071H177.143V184H134.772V175.071ZM185.863 128.549H195.731V184H185.863V128.549ZM207.896 128.549H217.764V152.045H218.234L241.182 128.549H254.497L228.573 154.16L256.22 184H242.357L218.313 156.744H217.764V184H207.896V128.549ZM258.536 156.509C258.536 152.071 259.267 148.051 260.729 144.448C262.191 140.793 264.201 137.686 266.759 135.128C269.37 132.569 272.451 130.611 276.001 129.254C279.604 127.844 283.546 127.139 287.828 127.139C292.162 127.087 296.13 127.74 299.733 129.097C303.335 130.402 306.442 132.334 309.053 134.893C311.663 137.451 313.7 140.532 315.162 144.135C316.624 147.737 317.355 151.758 317.355 156.196C317.355 160.53 316.624 164.472 315.162 168.023C313.7 171.573 311.663 174.628 309.053 177.186C306.442 179.745 303.335 181.755 299.733 183.217C296.13 184.627 292.162 185.358 287.828 185.41C283.546 185.41 279.604 184.731 276.001 183.373C272.451 181.964 269.37 180.006 266.759 177.499C264.201 174.941 262.191 171.886 260.729 168.336C259.267 164.785 258.536 160.843 258.536 156.509ZM268.874 155.883C268.874 158.859 269.318 161.6 270.206 164.107C271.145 166.613 272.451 168.78 274.122 170.607C275.792 172.435 277.777 173.871 280.074 174.915C282.424 175.959 285.034 176.481 287.906 176.481C290.778 176.481 293.389 175.959 295.738 174.915C298.088 173.871 300.098 172.435 301.769 170.607C303.44 168.78 304.719 166.613 305.607 164.107C306.546 161.6 307.016 158.859 307.016 155.883C307.016 153.115 306.546 150.531 305.607 148.129C304.719 145.727 303.44 143.639 301.769 141.863C300.098 140.036 298.088 138.626 295.738 137.634C293.389 136.59 290.778 136.068 287.906 136.068C285.034 136.068 282.424 136.59 280.074 137.634C277.777 138.626 275.792 140.036 274.122 141.863C272.451 143.639 271.145 145.727 270.206 148.129C269.318 150.531 268.874 153.115 268.874 155.883ZM353.931 140.454C352.887 138.939 351.477 137.843 349.702 137.164C347.979 136.433 346.151 136.068 344.219 136.068C343.071 136.068 341.948 136.198 340.852 136.459C339.807 136.72 338.841 137.138 337.954 137.712C337.118 138.287 336.44 139.044 335.917 139.984C335.395 140.871 335.134 141.942 335.134 143.195C335.134 145.075 335.787 146.51 337.092 147.502C338.398 148.495 340.016 149.356 341.948 150.087C343.88 150.818 345.995 151.523 348.292 152.202C350.589 152.881 352.704 153.82 354.636 155.021C356.568 156.222 358.187 157.815 359.492 159.799C360.797 161.783 361.45 164.42 361.45 167.709C361.45 170.685 360.902 173.296 359.805 175.541C358.709 177.734 357.221 179.562 355.341 181.024C353.513 182.486 351.373 183.582 348.919 184.313C346.465 185.044 343.88 185.41 341.165 185.41C337.719 185.41 334.403 184.835 331.218 183.687C328.033 182.538 325.292 180.606 322.994 177.891L330.435 170.685C331.636 172.513 333.202 173.949 335.134 174.993C337.118 175.985 339.207 176.481 341.4 176.481C342.549 176.481 343.697 176.325 344.846 176.011C345.995 175.698 347.039 175.228 347.979 174.601C348.919 173.975 349.676 173.192 350.25 172.252C350.824 171.26 351.112 170.137 351.112 168.884C351.112 166.848 350.459 165.281 349.154 164.185C347.848 163.088 346.23 162.175 344.298 161.444C342.366 160.66 340.251 159.929 337.954 159.251C335.656 158.572 333.542 157.658 331.61 156.509C329.678 155.308 328.059 153.742 326.754 151.81C325.448 149.826 324.796 147.189 324.796 143.9C324.796 141.028 325.37 138.548 326.519 136.459C327.72 134.371 329.26 132.648 331.14 131.29C333.072 129.88 335.265 128.836 337.719 128.157C340.173 127.478 342.679 127.139 345.238 127.139C348.162 127.139 350.981 127.583 353.696 128.471C356.464 129.358 358.944 130.82 361.137 132.856L353.931 140.454Z" fill="white"/>
</svg>
